<svg xmlns="http://www.w3.org/2000/svg" width="37.98" height="37.93" viewBox="0 0 37.98 37.93"><path d="M33,.15A6,6,0,0,0,31.67,0H6.5A6.31,6.31,0,0,0,.16,6.26L0,30.21C24.42,24.81,13.79,5.92,33,.15" style="fill:#3b7759"/><path d="M35.31,1.37C22.64,7.58,29.53,26.77,15,37.93H31.46a6.3,6.3,0,0,0,6.34-6.26h0L38,6.49a6.32,6.32,0,0,0-2.62-5.15" style="fill:#f5aa37"/><path d="M8.7,32.9a27.38,27.38,0,0,0,3.75-2.25l1.07,1a34.34,34.34,0,0,1-4.82,3L8,33.23Z" style="fill:#3b7759"/><path d="M15,28a22.63,22.63,0,0,0,2.47-3.51l1,.62a26.77,26.77,0,0,1-2.95,4.29l-1-.89Z" style="fill:#3b7759"/><path d="M19.1,21.43c.11-.28,1.51-3.89,1.56-4l.95.35c-.31.81-1.39,4-1.78,4.75L18.9,22Z" style="fill:#3b7759"/><path d="M21.66,14.55A25.38,25.38,0,0,1,23.2,11l.73.39a26.16,26.16,0,0,0-1.59,3.92L21.48,15Z" style="fill:#3b7759"/><path d="M24.53,8.57a13.4,13.4,0,0,1,1.71-2.51l.53.35A18,18,0,0,0,25,9.48l-.72-.38Z" style="fill:#3b7759"/><path d="M29.54,3l.33.25a10,10,0,0,0-2.15,2l-.45-.32A8.75,8.75,0,0,1,29.54,3" style="fill:#3b7759"/><path d="M32.12,1.49l.29.16A11.73,11.73,0,0,0,30.6,2.71l-.31-.22a9.85,9.85,0,0,1,1.83-1" style="fill:#3b7759"/><path d="M33.92.61l.33.1A9.69,9.69,0,0,0,33,1.33l-.29-.2A7.61,7.61,0,0,1,33.92.61" style="fill:#3b7759"/><path d="M4.11,34.93c-.74.26-1.48.48-2.23.69a6.43,6.43,0,0,0,1.53,1.27c.63-.21,1.35-.48,2-.71l-.52-1.51Z" style="fill:#3b7759"/></svg>